<?xml version="1.0" standalone="no"?>
<!DOCTYPE svg PUBLIC "-//W3C//DTD SVG 20010904//EN"
 "http://www.w3.org/TR/2001/REC-SVG-20010904/DTD/svg10.dtd">
<svg version="1.0" xmlns="http://www.w3.org/2000/svg"
 width="346.000000pt" height="213.000000pt" viewBox="0 0 346.000000 213.000000"
 preserveAspectRatio="xMidYMid meet">

<g transform="translate(0.000000,213.000000) scale(0.100000,-0.100000)"
fill="#000000" stroke="none">
<path d="M777 1973 c-4 -3 -7 -138 -7 -300 l0 -293 45 0 45 0 1 238 c1 130 1
243 0 250 -2 9 176 12 859 12 683 0 861 -3 859 -12 -1 -7 -1 -120 0 -250 l1
-238 45 0 45 0 -2 298 -3 297 -941 3 c-517 1 -944 -1 -947 -5z"/>
<path d="M1020 1555 l0 -175 700 0 700 0 0 175 0 175 -700 0 -700 0 0 -175z"/>
<path d="M3080 1300 c0 -20 5 -30 15 -30 13 0 15 -26 15 -170 0 -144 -2 -170
-15 -170 -10 0 -15 -10 -15 -30 l0 -30 70 0 70 0 0 30 c0 20 -5 30 -15 30 -12
0 -15 17 -15 90 l0 90 29 0 c58 0 61 -5 61 -95 0 -74 -2 -83 -20 -88 -14 -3
-20 -14 -20 -31 0 -26 1 -26 70 -26 l70 0 0 30 c0 20 -5 30 -15 30 -12 0 -15
17 -15 95 0 88 -2 98 -25 120 -23 24 -42 28 -107 27 l-28 -1 0 80 0 79 -55 0
c-54 0 -55 0 -55 -30z"/>
<path d="M60 1270 c0 -20 5 -30 15 -30 13 0 15 -24 15 -155 0 -131 -2 -155
-15 -155 -10 0 -15 -10 -15 -30 l0 -30 70 0 70 0 0 30 c0 20 -5 30 -15 30 -12
0 -15 14 -15 65 0 68 3 72 44 54 27 -13 43 -42 71 -126 l17 -53 49 0 c48 0 49
1 49 29 0 22 -5 30 -21 33 -15 2 -28 21 -47 67 l-27 64 33 33 c26 26 32 40 32
73 0 23 -7 56 -16 72 -23 45 -67 59 -189 59 l-105 0 0 -30z m228 -52 c7 -7 12
-24 12 -40 0 -35 -31 -55 -85 -54 l-40 1 -3 53 -3 52 53 0 c30 0 59 -5 66 -12z"/>
<path d="M736 1278 c-3 -13 -6 -42 -6 -65 0 -24 -3 -42 -7 -42 -37 6 -49 -44
-13 -54 18 -5 20 -14 20 -97 0 -88 1 -93 29 -121 23 -23 39 -29 70 -29 40 0
41 1 41 35 0 32 -3 35 -29 35 -36 0 -41 13 -41 101 l0 69 31 0 c28 0 30 2 27
33 -2 27 -7 32 -28 32 -24 0 -25 4 -28 63 -3 61 -4 62 -31 62 -21 0 -30 -6
-35 -22z"/>
<path d="M1170 1271 c0 -20 6 -30 20 -34 19 -5 20 -14 20 -156 0 -144 -1 -151
-20 -151 -16 0 -20 -7 -20 -30 l0 -30 75 0 c74 0 75 0 75 26 0 17 -6 28 -20
31 -18 5 -20 14 -20 111 0 58 2 103 4 101 2 -2 22 -35 44 -73 l40 -68 42 71
c23 39 44 71 46 71 2 0 4 -47 4 -105 0 -98 -1 -105 -20 -105 -16 0 -20 -7 -20
-30 l0 -30 75 0 c74 0 75 0 75 26 0 17 -6 28 -20 31 -19 5 -20 14 -20 159 0
147 1 154 20 154 16 0 20 7 20 30 0 30 -1 30 -52 30 l-53 0 -45 -80 c-25 -44
-48 -80 -51 -80 -3 0 -25 36 -50 80 l-44 80 -52 0 c-52 0 -53 -1 -53 -29z"/>
<path d="M1920 1270 c0 -23 4 -30 20 -30 19 0 20 -7 20 -154 0 -145 -1 -154
-20 -159 -14 -3 -20 -14 -20 -31 0 -26 1 -26 75 -26 74 0 75 0 75 26 0 17 -6
28 -20 31 -18 5 -20 14 -20 109 0 57 2 104 5 104 2 0 20 -29 40 -65 20 -36 41
-65 45 -65 5 0 25 29 45 65 20 36 39 65 41 65 2 0 4 -47 4 -104 0 -95 -2 -104
-20 -109 -14 -3 -20 -14 -20 -31 0 -26 1 -26 75 -26 74 0 75 0 75 26 0 17 -6
28 -20 31 -19 5 -20 14 -20 155 0 141 1 150 20 155 14 4 20 14 20 34 0 28 -1
29 -52 29 l-53 0 -45 -80 c-25 -44 -47 -80 -50 -80 -3 0 -25 36 -50 80 l-45
80 -52 0 c-52 0 -53 0 -53 -30z"/>
<path d="M2666 1263 c-3 -21 -6 -50 -6 -65 0 -16 -5 -27 -11 -25 -6 1 -16 -6
-22 -16 -10 -16 -8 -21 11 -34 20 -14 22 -24 22 -95 0 -113 29 -157 103 -158
36 0 37 1 37 35 0 32 -2 35 -30 35 -35 0 -40 15 -37 105 2 58 3 60 32 65 24 4
31 11 33 33 2 17 -2 27 -10 28 -7 1 -22 2 -33 3 -17 1 -20 9 -23 64 -3 61 -4
62 -31 62 -25 0 -29 -4 -35 -37z"/>
<path d="M446 1173 c-3 -3 -6 -28 -6 -55 0 -47 1 -48 30 -48 24 0 30 4 30 21
0 17 5 20 38 17 29 -2 38 -8 40 -24 3 -18 -5 -22 -54 -33 -71 -16 -104 -46
-104 -96 0 -25 8 -44 25 -60 23 -24 31 -25 135 -25 l110 0 0 30 c0 19 -5 30
-14 30 -11 0 -15 22 -18 95 -3 87 -5 97 -30 121 -23 23 -36 27 -101 30 -41 2
-77 0 -81 -3z m134 -204 c0 -29 -1 -30 -42 -27 -54 4 -58 28 -8 45 49 17 50
16 50 -18z"/>
<path d="M960 1167 c-45 -16 -60 -47 -60 -128 0 -130 36 -169 159 -169 l72 0
-3 33 -3 32 -70 5 c-53 4 -71 9 -73 21 -2 12 12 19 53 29 59 14 105 54 105 90
0 31 -18 68 -37 78 -32 17 -107 21 -143 9z m99 -71 c15 -18 -2 -31 -51 -40
-33 -6 -38 -4 -38 12 0 10 5 23 12 30 16 16 63 15 77 -2z"/>
<path d="M1590 1152 c0 -17 6 -32 15 -36 12 -4 15 -25 15 -95 0 -83 2 -92 27
-121 26 -31 29 -32 85 -27 54 5 58 4 58 -16 0 -44 -35 -66 -92 -61 -37 3 -38
2 -38 -31 l0 -35 55 0 c31 0 69 7 85 15 52 27 60 58 60 220 0 138 1 147 20
152 22 6 28 48 8 55 -7 3 -40 4 -73 4 -57 -1 -60 -2 -63 -28 -2 -19 2 -28 17
-33 19 -6 21 -14 21 -75 0 -78 -13 -100 -61 -100 l-29 0 0 85 c0 66 3 86 16
93 9 5 14 18 12 33 -3 21 -8 24 -70 27 l-68 3 0 -29z"/>
<path d="M2383 1174 c-8 -3 -13 -25 -13 -55 0 -47 1 -49 29 -49 21 0 30 6 34
21 8 29 72 24 72 -5 0 -15 -13 -24 -60 -38 -33 -9 -68 -27 -77 -39 -26 -31
-23 -85 7 -114 23 -24 31 -25 135 -25 l110 0 0 30 c0 20 -5 30 -15 30 -12 0
-15 16 -15 85 0 91 -15 137 -47 150 -24 9 -145 16 -160 9z m127 -204 c0 -28
-2 -30 -39 -30 -67 0 -66 34 1 50 18 4 34 8 36 9 1 1 2 -12 2 -29z"/>
<path d="M2925 1175 c-5 -2 -22 -6 -37 -9 -39 -9 -58 -52 -58 -131 0 -123 40
-165 160 -165 l60 0 0 35 0 35 -59 0 c-75 0 -83 9 -79 97 l3 68 37 3 c29 3 38
-1 43 -17 4 -14 15 -21 31 -21 24 0 25 2 22 53 l-3 52 -55 1 c-30 1 -59 0 -65
-1z"/>
<path d="M770 375 l0 -295 950 0 950 0 0 295 0 295 -45 0 c-29 0 -45 -4 -45
-12 0 -7 -2 -119 -3 -248 l-2 -235 -855 0 -855 0 -2 235 c-1 129 -3 241 -3
248 0 8 -16 12 -45 12 l-45 0 0 -295z"/>
<path d="M1020 500 l0 -170 700 0 700 0 0 170 0 170 -700 0 -700 0 0 -170z"/>
</g>
</svg>
